<svg width="25" height="23" viewBox="0 0 25 23" fill="none" xmlns="http://www.w3.org/2000/svg">
<path d="M21.7281 3.7277C20.8745 2.79716 19.3347 2.74008 18.3086 3.76616L8.25884 13.816C7.99829 14.0765 7.99829 14.4066 8.25884 14.6671C8.51939 14.9277 8.84942 14.9277 9.10997 14.6671L17.4228 6.35429C17.6568 6.12829 17.9702 6.00323 18.2955 6.00606C18.6208 6.00888 18.932 6.13937 19.162 6.36941C19.3921 6.59945 19.5226 6.91063 19.5254 7.23595C19.5282 7.56126 19.4032 7.87467 19.1772 8.10867L10.8643 16.4215C10.581 16.713 10.2421 16.9447 9.86771 17.103C9.49327 17.2612 9.0909 17.3427 8.6844 17.3427C8.2779 17.3427 7.87553 17.2612 7.50109 17.103C7.12666 16.9447 6.78776 16.713 6.50446 16.4215C6.21294 16.1382 5.98121 15.7993 5.82297 15.4248C5.66472 15.0504 5.58319 14.648 5.58319 14.2415C5.58319 13.835 5.66472 13.4327 5.82297 13.0582C5.98121 12.6838 6.21294 12.3449 6.50446 12.0616L16.5543 2.01178C18.4985 0.066338 21.6598 0.00306183 23.5395 2.03039C25.4651 3.97708 25.5209 7.1223 23.5023 8.99454L11.7328 20.764C9.01567 23.4812 4.75505 23.4812 2.03788 20.764C-0.679293 18.0468 -0.679293 13.7862 2.03788 11.069L12.0877 1.01921C12.3217 0.793202 12.6351 0.668145 12.9604 0.670972C13.2857 0.673799 13.5969 0.804284 13.827 1.03432C14.057 1.26436 14.1875 1.57555 14.1903 1.90086C14.1931 2.22617 14.0681 2.53958 13.8421 2.77358L3.79225 12.8234C2.04284 14.5728 2.04284 17.2602 3.79225 19.0096C5.54166 20.759 8.22906 20.759 9.97847 19.0096L21.7653 7.2228L21.8037 7.18558C22.7343 6.3332 22.7914 4.79223 21.7653 3.76616C21.7526 3.75359 21.7402 3.74077 21.7281 3.7277Z" fill="#545454"/>
</svg>
