<svg width="26" height="26" viewBox="0 0 26 26" fill="none" xmlns="http://www.w3.org/2000/svg">
<path d="M23.2656 21.656C24.0486 20.6065 24.5859 19.3945 24.8379 18.1096C25.0899 16.8246 25.0501 15.4995 24.7215 14.232C24.393 12.9644 23.784 11.7869 22.9395 10.7862C22.095 9.78546 21.0366 8.98715 19.8423 8.45016C19.5822 6.95354 18.9843 5.5359 18.0942 4.30496C17.2041 3.07402 16.0451 2.06216 14.7053 1.34627C13.3655 0.630383 11.8802 0.229299 10.3621 0.173495C8.84411 0.117691 7.33333 0.408635 5.94459 1.02422C4.55586 1.63981 3.3257 2.56384 2.3476 3.7261C1.3695 4.88837 0.669191 6.25828 0.299881 7.73177C-0.0694286 9.20525 -0.098021 10.7435 0.216277 12.2297C0.530575 13.7159 1.17949 15.1109 2.11373 16.3087L0.3771 18.0328C0.20374 18.2085 0.0863039 18.4316 0.0396097 18.674C-0.00708444 18.9164 0.0190558 19.1671 0.114732 19.3947C0.20846 19.6228 0.367627 19.8181 0.572174 19.956C0.776722 20.0938 1.0175 20.168 1.26415 20.1693H8.37308C9.08103 21.6618 10.1972 22.9232 11.5924 23.8077C12.9876 24.6921 14.6047 25.1633 16.2566 25.1667H23.7528C23.9995 25.1655 24.2403 25.0913 24.4448 24.9535C24.6494 24.8156 24.8085 24.6203 24.9023 24.3921C24.9979 24.1646 25.0241 23.9138 24.9774 23.6715C24.9307 23.4291 24.8133 23.206 24.6399 23.0303L23.2656 21.656ZM7.51101 16.4211C7.51273 16.8395 7.54614 17.2572 7.61096 17.6705H4.27514L4.71242 17.2457C4.82952 17.1296 4.92247 16.9914 4.9859 16.8392C5.04932 16.6869 5.08198 16.5236 5.08198 16.3587C5.08198 16.1937 5.04932 16.0304 4.9859 15.8782C4.92247 15.726 4.82952 15.5878 4.71242 15.4716C4.01222 14.7791 3.45711 13.9539 3.07956 13.0444C2.702 12.1348 2.50957 11.1591 2.51353 10.1743C2.51353 8.18617 3.3033 6.27947 4.70912 4.87366C6.11494 3.46784 8.02163 2.67806 10.0098 2.67806C11.5611 2.66874 13.0763 3.14581 14.3425 4.04221C15.6086 4.9386 16.5621 6.20926 17.0687 7.67555H16.2566C13.9371 7.67555 11.7127 8.59696 10.0725 10.2371C8.43242 11.8772 7.51101 14.1017 7.51101 16.4211ZM20.6794 22.668L20.7419 22.7305H16.2566C14.8115 22.7279 13.412 22.2244 12.2965 21.3057C11.181 20.387 10.4185 19.11 10.1389 17.6922C9.85935 16.2744 10.08 14.8035 10.7632 13.5301C11.4465 12.2567 12.5501 11.2596 13.886 10.7086C15.2219 10.1577 16.7076 10.0869 18.0898 10.5084C19.4721 10.9299 20.6655 11.8176 21.4667 13.0203C22.2678 14.223 22.6273 15.6662 22.4837 17.1042C22.3402 18.5421 21.7025 19.8858 20.6794 20.9064C20.444 21.1371 20.3093 21.4514 20.3046 21.781C20.3053 21.9463 20.3387 22.1098 20.4031 22.262C20.4674 22.4143 20.5613 22.5523 20.6794 22.668Z" fill="#545454"/>
</svg>
