<svg width="27" height="34" viewBox="0 0 27 34" fill="none" xmlns="http://www.w3.org/2000/svg">
<path d="M6.68182 7.57575C6.38044 7.57575 6.0914 7.69547 5.87829 7.90858C5.66518 8.12169 5.54545 8.41073 5.54545 8.71211C5.54545 9.0135 5.66518 9.30253 5.87829 9.51564C6.0914 9.72875 6.38044 9.84848 6.68182 9.84848V7.57575ZM11.2273 9.84848C11.5287 9.84848 11.8177 9.72875 12.0308 9.51564C12.2439 9.30253 12.3636 9.0135 12.3636 8.71211C12.3636 8.41073 12.2439 8.12169 12.0308 7.90858C11.8177 7.69547 11.5287 7.57575 11.2273 7.57575V9.84848ZM6.68182 15.5303C6.38044 15.5303 6.0914 15.65 5.87829 15.8631C5.66518 16.0762 5.54545 16.3653 5.54545 16.6667C5.54545 16.968 5.66518 17.2571 5.87829 17.4702C6.0914 17.6833 6.38044 17.803 6.68182 17.803V15.5303ZM20.3182 17.803C20.6196 17.803 20.9086 17.6833 21.1217 17.4702C21.3348 17.2571 21.4545 16.968 21.4545 16.6667C21.4545 16.3653 21.3348 16.0762 21.1217 15.8631C20.9086 15.65 20.6196 15.5303 20.3182 15.5303V17.803ZM6.68182 20.0758C6.38044 20.0758 6.0914 20.1955 5.87829 20.4086C5.66518 20.6217 5.54545 20.9107 5.54545 21.2121C5.54545 21.5135 5.66518 21.8025 5.87829 22.0156C6.0914 22.2288 6.38044 22.3485 6.68182 22.3485V20.0758ZM20.3182 22.3485C20.6196 22.3485 20.9086 22.2288 21.1217 22.0156C21.3348 21.8025 21.4545 21.5135 21.4545 21.2121C21.4545 20.9107 21.3348 20.6217 21.1217 20.4086C20.9086 20.1955 20.6196 20.0758 20.3182 20.0758V22.3485ZM6.68182 24.6212C6.38044 24.6212 6.0914 24.7409 5.87829 24.954C5.66518 25.1671 5.54545 25.4562 5.54545 25.7576C5.54545 26.059 5.66518 26.348 5.87829 26.5611C6.0914 26.7742 6.38044 26.8939 6.68182 26.8939V24.6212ZM11.2273 26.8939C11.5287 26.8939 11.8177 26.7742 12.0308 26.5611C12.2439 26.348 12.3636 26.059 12.3636 25.7576C12.3636 25.4562 12.2439 25.1671 12.0308 24.954C11.8177 24.7409 11.5287 24.6212 11.2273 24.6212V26.8939ZM4.40909 3.0303H22.5909V0.757568H4.40909V3.0303ZM23.7273 4.16666V29.1667H26V4.16666H23.7273ZM22.5909 30.303H4.40909V32.5758H22.5909V30.303ZM3.27273 29.1667V4.16666H1V29.1667H3.27273ZM4.40909 30.303C4.10771 30.303 3.81867 30.1833 3.60556 29.9702C3.39245 29.7571 3.27273 29.468 3.27273 29.1667H1C1 30.0708 1.35917 30.9379 1.9985 31.5773C2.63783 32.2166 3.50494 32.5758 4.40909 32.5758V30.303ZM23.7273 29.1667C23.7273 29.468 23.6075 29.7571 23.3944 29.9702C23.1813 30.1833 22.8923 30.303 22.5909 30.303V32.5758C23.4951 32.5758 24.3622 32.2166 25.0015 31.5773C25.6408 30.9379 26 30.0708 26 29.1667H23.7273ZM22.5909 3.0303C22.8923 3.0303 23.1813 3.15002 23.3944 3.36313C23.6075 3.57624 23.7273 3.86528 23.7273 4.16666H26C26 3.26251 25.6408 2.3954 25.0015 1.75607C24.3622 1.11674 23.4951 0.757568 22.5909 0.757568V3.0303ZM4.40909 0.757568C3.50494 0.757568 2.63783 1.11674 1.9985 1.75607C1.35917 2.3954 1 3.26251 1 4.16666H3.27273C3.27273 3.86528 3.39245 3.57624 3.60556 3.36313C3.81867 3.15002 4.10771 3.0303 4.40909 3.0303V0.757568ZM6.68182 9.84848H11.2273V7.57575H6.68182V9.84848ZM6.68182 17.803H20.3182V15.5303H6.68182V17.803ZM6.68182 22.3485H20.3182V20.0758H6.68182V22.3485ZM6.68182 26.8939H11.2273V24.6212H6.68182V26.8939Z" fill="#545454"/>
<path d="M20.3182 9.28065C20.632 9.28065 20.8864 9.02627 20.8864 8.71247C20.8864 8.39867 20.632 8.14429 20.3182 8.14429C20.0044 8.14429 19.75 8.39867 19.75 8.71247C19.75 9.02627 20.0044 9.28065 20.3182 9.28065Z" fill="#545454"/>
<path d="M6.68182 7.57575C6.38044 7.57575 6.0914 7.69547 5.87829 7.90858C5.66518 8.12169 5.54545 8.41073 5.54545 8.71211C5.54545 9.0135 5.66518 9.30253 5.87829 9.51564C6.0914 9.72875 6.38044 9.84848 6.68182 9.84848M6.68182 7.57575V9.84848M6.68182 7.57575H11.2273M6.68182 9.84848H11.2273M11.2273 9.84848C11.5287 9.84848 11.8177 9.72875 12.0308 9.51564C12.2439 9.30253 12.3636 9.0135 12.3636 8.71211C12.3636 8.41073 12.2439 8.12169 12.0308 7.90858C11.8177 7.69547 11.5287 7.57575 11.2273 7.57575M11.2273 9.84848V7.57575M6.68182 15.5303C6.38044 15.5303 6.0914 15.65 5.87829 15.8631C5.66518 16.0762 5.54545 16.3653 5.54545 16.6667C5.54545 16.968 5.66518 17.2571 5.87829 17.4702C6.0914 17.6833 6.38044 17.803 6.68182 17.803M6.68182 15.5303V17.803M6.68182 15.5303H20.3182M6.68182 17.803H20.3182M20.3182 17.803C20.6196 17.803 20.9086 17.6833 21.1217 17.4702C21.3348 17.2571 21.4545 16.968 21.4545 16.6667C21.4545 16.3653 21.3348 16.0762 21.1217 15.8631C20.9086 15.65 20.6196 15.5303 20.3182 15.5303M20.3182 17.803V15.5303M6.68182 20.0758C6.38044 20.0758 6.0914 20.1955 5.87829 20.4086C5.66518 20.6217 5.54545 20.9107 5.54545 21.2121C5.54545 21.5135 5.66518 21.8025 5.87829 22.0156C6.0914 22.2288 6.38044 22.3485 6.68182 22.3485M6.68182 20.0758V22.3485M6.68182 20.0758H20.3182M6.68182 22.3485H20.3182M20.3182 22.3485C20.6196 22.3485 20.9086 22.2288 21.1217 22.0156C21.3348 21.8025 21.4545 21.5135 21.4545 21.2121C21.4545 20.9107 21.3348 20.6217 21.1217 20.4086C20.9086 20.1955 20.6196 20.0758 20.3182 20.0758M20.3182 22.3485V20.0758M6.68182 24.6212C6.38044 24.6212 6.0914 24.7409 5.87829 24.954C5.66518 25.1671 5.54545 25.4562 5.54545 25.7576C5.54545 26.059 5.66518 26.348 5.87829 26.5611C6.0914 26.7742 6.38044 26.8939 6.68182 26.8939M6.68182 24.6212V26.8939M6.68182 24.6212H11.2273M6.68182 26.8939H11.2273M11.2273 26.8939C11.5287 26.8939 11.8177 26.7742 12.0308 26.5611C12.2439 26.348 12.3636 26.059 12.3636 25.7576C12.3636 25.4562 12.2439 25.1671 12.0308 24.954C11.8177 24.7409 11.5287 24.6212 11.2273 24.6212M11.2273 26.8939V24.6212M4.40909 3.0303H22.5909M4.40909 3.0303V0.757568M4.40909 3.0303C4.10771 3.0303 3.81867 3.15002 3.60556 3.36313C3.39245 3.57624 3.27273 3.86528 3.27273 4.16666M22.5909 3.0303V0.757568M22.5909 3.0303C22.8923 3.0303 23.1813 3.15002 23.3944 3.36313C23.6075 3.57624 23.7273 3.86528 23.7273 4.16666M22.5909 0.757568H4.40909M22.5909 0.757568C23.4951 0.757568 24.3622 1.11674 25.0015 1.75607C25.6408 2.3954 26 3.26251 26 4.16666M4.40909 0.757568C3.50494 0.757568 2.63783 1.11674 1.9985 1.75607C1.35917 2.3954 1 3.26251 1 4.16666M23.7273 4.16666V29.1667M23.7273 4.16666H26M23.7273 29.1667H26M23.7273 29.1667C23.7273 29.468 23.6075 29.7571 23.3944 29.9702C23.1813 30.1833 22.8923 30.303 22.5909 30.303M26 29.1667V4.16666M26 29.1667C26 30.0708 25.6408 30.9379 25.0015 31.5773C24.3622 32.2166 23.4951 32.5758 22.5909 32.5758M22.5909 30.303H4.40909M22.5909 30.303V32.5758M4.40909 30.303V32.5758M4.40909 30.303C4.10771 30.303 3.81867 30.1833 3.60556 29.9702C3.39245 29.7571 3.27273 29.468 3.27273 29.1667M4.40909 32.5758H22.5909M4.40909 32.5758C3.50494 32.5758 2.63783 32.2166 1.9985 31.5773C1.35917 30.9379 1 30.0708 1 29.1667M3.27273 29.1667V4.16666M3.27273 29.1667H1M3.27273 4.16666H1M1 4.16666V29.1667M20.8864 8.71247C20.8864 9.02627 20.632 9.28065 20.3182 9.28065C20.0044 9.28065 19.75 9.02627 19.75 8.71247C19.75 8.39867 20.0044 8.14429 20.3182 8.14429C20.632 8.14429 20.8864 8.39867 20.8864 8.71247Z" stroke="#545454"/>
</svg>
