<svg width="25" height="34" viewBox="0 0 25 34" fill="none" xmlns="http://www.w3.org/2000/svg">
<path d="M11.1542 12.1958C11.3498 12.0002 11.4596 11.7349 11.4596 11.4583C11.4596 11.1817 11.3498 10.9164 11.1542 10.7208C10.9586 10.5252 10.6933 10.4153 10.4167 10.4153C10.14 10.4153 9.87476 10.5252 9.67917 10.7208L6.7375 13.6625L5.91042 12.9083C5.70491 12.7327 5.43917 12.6438 5.16935 12.6605C4.89952 12.6772 4.64675 12.7981 4.46445 12.9977C4.28214 13.1973 4.18458 13.46 4.19238 13.7302C4.20018 14.0005 4.31273 14.2571 4.50625 14.4458L6.06875 15.8729C6.26673 16.0532 6.52651 16.1503 6.79417 16.1441C7.06184 16.1378 7.31684 16.0288 7.50625 15.8396L11.1521 12.1937L11.1542 12.1958ZM11.1542 21.1375C11.2512 21.2343 11.3281 21.3492 11.3807 21.4758C11.4332 21.6023 11.4602 21.738 11.4602 21.875C11.4602 22.012 11.4332 22.1477 11.3807 22.2742C11.3281 22.4008 11.2512 22.5157 11.1542 22.6125L7.50833 26.2583C7.31856 26.4479 7.06297 26.5569 6.79481 26.5627C6.52665 26.5686 6.26657 26.4707 6.06875 26.2896L4.50625 24.8625C4.31273 24.6737 4.20018 24.4171 4.19238 24.1469C4.18458 23.8767 4.28214 23.614 4.46445 23.4144C4.64675 23.2148 4.89952 23.0938 5.16935 23.0772C5.43917 23.0605 5.70491 23.1494 5.91042 23.325L6.7375 24.0812L9.67917 21.1375C9.77593 21.0405 9.89088 20.9635 10.0174 20.911C10.144 20.8585 10.2797 20.8315 10.4167 20.8315C10.5537 20.8315 10.6894 20.8585 10.8159 20.911C10.9425 20.9635 11.0574 21.0405 11.1542 21.1375ZM14.5833 22.3958C14.3071 22.3958 14.0421 22.5056 13.8468 22.7009C13.6514 22.8963 13.5417 23.1612 13.5417 23.4375C13.5417 23.7138 13.6514 23.9787 13.8468 24.1741C14.0421 24.3694 14.3071 24.4792 14.5833 24.4792H19.7917C20.0679 24.4792 20.3329 24.3694 20.5282 24.1741C20.7236 23.9787 20.8333 23.7138 20.8333 23.4375C20.8333 23.1612 20.7236 22.8963 20.5282 22.7009C20.3329 22.5056 20.0679 22.3958 19.7917 22.3958H14.5833ZM13.5417 13.0208C13.5417 12.7446 13.6514 12.4796 13.8468 12.2843C14.0421 12.0889 14.3071 11.9792 14.5833 11.9792H19.7917C20.0679 11.9792 20.3329 12.0889 20.5282 12.2843C20.7236 12.4796 20.8333 12.7446 20.8333 13.0208C20.8333 13.2971 20.7236 13.5621 20.5282 13.7574C20.3329 13.9528 20.0679 14.0625 19.7917 14.0625H14.5833C14.3071 14.0625 14.0421 13.9528 13.8468 13.7574C13.6514 13.5621 13.5417 13.2971 13.5417 13.0208ZM9.375 4.2966e-07C8.72849 -0.0003385 8.09778 0.19985 7.56981 0.572975C7.04184 0.946101 6.64259 1.4738 6.42708 2.08333H3.125C2.2962 2.08333 1.50134 2.41257 0.915291 2.99863C0.32924 3.58468 0 4.37953 0 5.20833V30.2083C0 31.0371 0.32924 31.832 0.915291 32.418C1.50134 33.0041 2.2962 33.3333 3.125 33.3333H21.875C22.7038 33.3333 23.4987 33.0041 24.0847 32.418C24.6708 31.832 25 31.0371 25 30.2083V5.20833C25 4.37953 24.6708 3.58468 24.0847 2.99863C23.4987 2.41257 22.7038 2.08333 21.875 2.08333H18.5729C18.3574 1.4738 17.9582 0.946101 17.4302 0.572975C16.9022 0.19985 16.2715 -0.0003385 15.625 4.2966e-07H9.375ZM8.33333 3.125C8.33333 2.84873 8.44308 2.58378 8.63843 2.38843C8.83378 2.19308 9.09873 2.08333 9.375 2.08333H15.625C15.9013 2.08333 16.1662 2.19308 16.3616 2.38843C16.5569 2.58378 16.6667 2.84873 16.6667 3.125C16.6667 3.40127 16.5569 3.66622 16.3616 3.86157C16.1662 4.05692 15.9013 4.16667 15.625 4.16667H9.375C9.09873 4.16667 8.83378 4.05692 8.63843 3.86157C8.44308 3.66622 8.33333 3.40127 8.33333 3.125ZM3.125 4.16667H6.42708C6.64259 4.77621 7.04184 5.3039 7.56981 5.67702C8.09778 6.05015 8.72849 6.25034 9.375 6.25H15.625C16.2715 6.25034 16.9022 6.05015 17.4302 5.67702C17.9582 5.3039 18.3574 4.77621 18.5729 4.16667H21.875C22.1513 4.16667 22.4162 4.27641 22.6116 4.47176C22.8069 4.66711 22.9167 4.93207 22.9167 5.20833V30.2083C22.9167 30.4846 22.8069 30.7496 22.6116 30.9449C22.4162 31.1403 22.1513 31.25 21.875 31.25H3.125C2.84873 31.25 2.58378 31.1403 2.38843 30.9449C2.19308 30.7496 2.08333 30.4846 2.08333 30.2083V5.20833C2.08333 4.93207 2.19308 4.66711 2.38843 4.47176C2.58378 4.27641 2.84873 4.16667 3.125 4.16667Z" fill="#545454"/>
</svg>
