<svg width="25" height="26" viewBox="0 0 25 26" fill="none" xmlns="http://www.w3.org/2000/svg">
<path d="M8.33333 25.1667C6.80556 25.1667 5.49769 24.6228 4.40972 23.5348C3.32176 22.4468 2.77778 21.139 2.77778 19.6112V8.25703C1.96759 7.9561 1.30185 7.4524 0.780556 6.74591C0.260185 6.04036 0 5.23619 0 4.33341C0 3.17601 0.405093 2.19221 1.21528 1.38203C2.02546 0.571841 3.00926 0.166748 4.16667 0.166748C5.32407 0.166748 6.30787 0.571841 7.11806 1.38203C7.92824 2.19221 8.33333 3.17601 8.33333 4.33341C8.33333 5.23619 8.07315 6.04036 7.55278 6.74591C7.03148 7.4524 6.36574 7.9561 5.55556 8.25703V19.6112C5.55556 20.3751 5.82778 21.0292 6.37222 21.5737C6.91574 22.1172 7.56944 22.389 8.33333 22.389C9.09722 22.389 9.75139 22.1172 10.2958 21.5737C10.8394 21.0292 11.1111 20.3751 11.1111 19.6112V5.7223C11.1111 4.19453 11.6551 2.88666 12.7431 1.79869C13.831 0.71073 15.1389 0.166748 16.6667 0.166748C18.1944 0.166748 19.5023 0.71073 20.5903 1.79869C21.6782 2.88666 22.2222 4.19453 22.2222 5.7223V17.0765C23.0324 17.3774 23.6981 17.8806 24.2194 18.5862C24.7398 19.2927 25 20.0973 25 21.0001C25 22.1575 24.5949 23.1413 23.7847 23.9515C22.9745 24.7617 21.9907 25.1667 20.8333 25.1667C19.6759 25.1667 18.6921 24.7617 17.8819 23.9515C17.0718 23.1413 16.6667 22.1575 16.6667 21.0001C16.6667 20.0973 16.9269 19.2871 17.4472 18.5695C17.9685 17.8519 18.6343 17.3542 19.4444 17.0765V5.7223C19.4444 4.95841 19.1727 4.30471 18.6292 3.76119C18.0847 3.21675 17.4306 2.94453 16.6667 2.94453C15.9028 2.94453 15.2491 3.21675 14.7056 3.76119C14.1611 4.30471 13.8889 4.95841 13.8889 5.7223V19.6112C13.8889 21.139 13.3449 22.4468 12.2569 23.5348C11.169 24.6228 9.86111 25.1667 8.33333 25.1667ZM4.16667 5.7223C4.56018 5.7223 4.89028 5.58943 5.15694 5.32369C5.42268 5.05703 5.55556 4.72693 5.55556 4.33341C5.55556 3.9399 5.42268 3.6098 5.15694 3.34314C4.89028 3.0774 4.56018 2.94453 4.16667 2.94453C3.77315 2.94453 3.44306 3.0774 3.17639 3.34314C2.91065 3.6098 2.77778 3.9399 2.77778 4.33341C2.77778 4.72693 2.91065 5.05703 3.17639 5.32369C3.44306 5.58943 3.77315 5.7223 4.16667 5.7223ZM20.8333 22.389C21.2269 22.389 21.5565 22.2556 21.8222 21.989C22.0889 21.7232 22.2222 21.3936 22.2222 21.0001C22.2222 20.6066 22.0889 20.2769 21.8222 20.0112C21.5565 19.7445 21.2269 19.6112 20.8333 19.6112C20.4398 19.6112 20.1102 19.7445 19.8444 20.0112C19.5778 20.2769 19.4444 20.6066 19.4444 21.0001C19.4444 21.3936 19.5778 21.7232 19.8444 21.989C20.1102 22.2556 20.4398 22.389 20.8333 22.389Z" fill="#545454"/>
</svg>
