<svg width="25" height="26" viewBox="0 0 25 26" fill="none" xmlns="http://www.w3.org/2000/svg">
<path d="M12.5195 0.166748C5.61811 0.166748 0 5.23154 0 11.4577C0 17.6838 5.61811 22.7486 12.5195 22.7486C13.8106 22.7471 15.0955 22.5625 16.3379 22.2002L20.6649 25.0391C20.7831 25.1172 20.9194 25.1611 21.0597 25.1662C21.1999 25.1714 21.3389 25.1375 21.4622 25.0683C21.5854 24.999 21.6882 24.8968 21.76 24.7725C21.8317 24.6482 21.8697 24.5063 21.8699 24.3616V18.9339C22.849 17.9658 23.6303 16.8057 24.1678 15.5217C24.7053 14.2378 24.9882 12.856 24.9998 11.4577C25.0389 5.23154 19.4208 0.166748 12.5195 0.166748ZM20.571 17.9984C20.4924 18.0735 20.4295 18.1646 20.3865 18.2659C20.3434 18.3672 20.321 18.4765 20.3206 18.5871V22.8938L16.8934 20.6437C16.7978 20.5814 16.6903 20.5412 16.5782 20.5259C16.466 20.5106 16.352 20.5205 16.244 20.5549C15.038 20.941 13.7823 21.1368 12.5195 21.1356C6.47882 21.1356 1.56493 16.7967 1.56493 11.4577C1.56493 6.11868 6.47882 1.77974 12.5195 1.77974C18.5601 1.77974 23.474 6.11868 23.474 11.4577C23.4562 12.6957 23.1889 13.9164 22.6892 15.0423C22.1894 16.1683 21.4681 17.1749 20.571 17.9984Z" fill="#545454"/>
<path d="M17.9967 10.6512H7.04222C6.83469 10.6512 6.63567 10.7362 6.48893 10.8874C6.34219 11.0386 6.25975 11.2438 6.25975 11.4577C6.25975 11.6716 6.34219 11.8767 6.48893 12.028C6.63567 12.1792 6.83469 12.2642 7.04222 12.2642H17.9967C18.2043 12.2642 18.4033 12.1792 18.55 12.028C18.6968 11.8767 18.7792 11.6716 18.7792 11.4577C18.7792 11.2438 18.6968 11.0386 18.55 10.8874C18.4033 10.7362 18.2043 10.6512 17.9967 10.6512Z" fill="#545454"/>
<path d="M15.4537 14.6839H9.58519C9.37766 14.6839 9.17864 14.7689 9.0319 14.9201C8.88516 15.0714 8.80272 15.2765 8.80272 15.4904C8.80272 15.7043 8.88516 15.9094 9.0319 16.0607C9.17864 16.2119 9.37766 16.2969 9.58519 16.2969H15.4537C15.6612 16.2969 15.8602 16.2119 16.007 16.0607C16.1537 15.9094 16.2361 15.7043 16.2361 15.4904C16.2361 15.2765 16.1537 15.0714 16.007 14.9201C15.8602 14.7689 15.6612 14.6839 15.4537 14.6839Z" fill="#545454"/>
<path d="M7.26133 8.23195H17.7777C17.9852 8.23195 18.1842 8.14698 18.331 7.99573C18.4777 7.84448 18.5601 7.63935 18.5601 7.42545C18.5601 7.21156 18.4777 7.00642 18.331 6.85517C18.1842 6.70393 17.9852 6.61896 17.7777 6.61896H7.26133C7.05381 6.61896 6.85479 6.70393 6.70805 6.85517C6.56131 7.00642 6.47887 7.21156 6.47887 7.42545C6.47887 7.63935 6.56131 7.84448 6.70805 7.99573C6.85479 8.14698 7.05381 8.23195 7.26133 8.23195Z" fill="#545454"/>
</svg>
